<svg width="800" height="600" viewBox="0 0 800 600" xmlns="http://www.w3.org/2000/svg">
  <!-- Ciel -->
  <defs>
    <linearGradient id="sky" x1="0%" y1="0%" x2="0%" y2="100%">
      <stop offset="0%" style="stop-color:#87CEEB;stop-opacity:1" />
      <stop offset="100%" style="stop-color:#E0F6FF;stop-opacity:1" />
    </linearGradient>
    <linearGradient id="field" x1="0%" y1="0%" x2="0%" y2="100%">
      <stop offset="0%" style="stop-color:#90EE90;stop-opacity:1" />
      <stop offset="100%" style="stop-color:#228B22;stop-opacity:1" />
    </linearGradient>
  </defs>
  
  <!-- Ciel -->
  <rect width="800" height="400" fill="url(#sky)"/>
  
  <!-- Champ -->
  <rect x="0" y="300" width="800" height="300" fill="url(#field)"/>
  
  <!-- Lignes de culture -->
  <g stroke="#32CD32" stroke-width="2" opacity="0.6">
    <line x1="0" y1="350" x2="800" y2="350"/>
    <line x1="0" y1="400" x2="800" y2="400"/>
    <line x1="0" y1="450" x2="800" y2="450"/>
    <line x1="0" y1="500" x2="800" y2="500"/>
  </g>
  
  <!-- Agriculteur (silhouette) -->
  <g transform="translate(400, 250)">
    <!-- Corps -->
    <ellipse cx="0" cy="20" rx="15" ry="25" fill="#2F4F4F"/>
    <!-- Tête -->
    <circle cx="0" cy="-10" r="12" fill="#8B4513"/>
    <!-- Chapeau -->
    <ellipse cx="0" cy="-15" rx="18" ry="8" fill="#654321"/>
    <!-- Bras -->
    <ellipse cx="-20" cy="5" rx="8" ry="15" fill="#2F4F4F" transform="rotate(-30 -20 5)"/>
    <ellipse cx="20" cy="5" rx="8" ry="15" fill="#2F4F4F" transform="rotate(30 20 5)"/>
    <!-- Jambes -->
    <ellipse cx="-8" cy="45" rx="6" ry="20" fill="#2F4F4F"/>
    <ellipse cx="8" cy="45" rx="6" ry="20" fill="#2F4F4F"/>
  </g>
  
  <!-- Outils agricoles -->
  <g transform="translate(350, 280)">
    <!-- Râteau -->
    <line x1="0" y1="0" x2="0" y2="40" stroke="#8B4513" stroke-width="3"/>
    <line x1="-15" y1="35" x2="15" y2="35" stroke="#8B4513" stroke-width="2"/>
  </g>
  
  <!-- Nuages -->
  <g fill="white" opacity="0.8">
    <ellipse cx="150" cy="80" rx="40" ry="20"/>
    <ellipse cx="170" cy="80" rx="35" ry="18"/>
    <ellipse cx="190" cy="80" rx="30" ry="15"/>
    
    <ellipse cx="600" cy="120" rx="35" ry="18"/>
    <ellipse cx="620" cy="120" rx="30" ry="15"/>
    <ellipse cx="640" cy="120" rx="25" ry="12"/>
  </g>
  
  <!-- Soleil -->
  <circle cx="700" cy="100" r="30" fill="#FFD700" opacity="0.9"/>
  <g stroke="#FFD700" stroke-width="3" opacity="0.7">
    <line x1="700" y1="50" x2="700" y2="40"/>
    <line x1="700" y1="150" x2="700" y2="160"/>
    <line x1="650" y1="100" x2="640" y2="100"/>
    <line x1="750" y1="100" x2="760" y2="100"/>
    <line x1="670" y1="70" x2="665" y2="65"/>
    <line x1="730" y1="70" x2="735" y2="65"/>
    <line x1="670" y1="130" x2="665" y2="135"/>
    <line x1="730" y1="130" x2="735" y2="135"/>
  </g>
</svg>
